#N canvas -862 -168 816 525 12;
#X obj 59 510 dac~;
#X obj 57 129 bng 19 250 50 0 empty empty empty 0 -10 0 12 #fcfcfc #000000 #000000;
#X obj 57 199 line~;
#X obj 62 366 cos~;
#X obj 222 499 tabwrite~ scope;
#N canvas 26 26 816 607 (subpatch) 0;
#X array scope 10000 float 4;
#X coords 0 1 9999 -1 219 139 1;
#X restore 602 131 graph;
#X obj 61 276 *~ 10;
#X obj 65 316 -~ 0.25;
#X obj 57 34 loadbang;
#X obj 57 102 metro 100;
#X obj 211 56 bng 19 250 50 0 empty empty empty 0 -10 0 12 #fcfcfc #000000 #000000;
#X obj 216 208 snapshot~;
#X obj 191 110 metro 100;
#X obj 58 235 sqrt~;
#X msg 57 171 0 \, 1 50;
#X obj 119 462 vcf~;
#X obj 171 348 hsl 162 19 100 2000 0 0 empty empty empty -2 -10 0 12 #fcfcfc #000000 #000000 0 1;
#X obj 128 396 sig~;
#X floatatom 161 430 5 0 0 0 - - - 0;
#X obj 269 152 *~ 100;
#X obj 316 117 osc~ 0.1;
#X obj 267 181 +~ 160;
#X obj 331 90 *~ 0.1;
#X obj 331 61 phasor~ 0.1;
#X obj 457 113 oscparse;
#X msg 459 41 listen 8080;
#X obj 458 77 netreceive -u -b;
#X obj 459 149 list trim;
#X obj 458 178 route pd;
#X obj 458 208 bang;
#X obj 456 243 bng 19 250 50 0 empty empty empty 0 -10 0 12 #fcfcfc #000000 #000000;
#X connect 1 0 4 0;
#X connect 2 0 13 0;
#X connect 3 0 15 0;
#X connect 6 0 7 0;
#X connect 7 0 3 0;
#X connect 8 0 9 0;
#X connect 8 0 12 0;
#X connect 8 0 25 0;
#X connect 9 0 1 0;
#X connect 10 0 9 0;
#X connect 10 0 12 0;
#X connect 12 0 11 0;
#X connect 13 0 6 0;
#X connect 14 0 2 0;
#X connect 15 0 4 0;
#X connect 15 0 0 1;
#X connect 15 0 0 0;
#X connect 16 0 17 0;
#X connect 17 0 15 1;
#X connect 18 0 15 2;
#X connect 19 0 21 0;
#X connect 20 0 19 0;
#X connect 21 0 11 0;
#X connect 22 0 20 0;
#X connect 23 0 22 0;
#X connect 24 0 27 0;
#X connect 25 0 26 0;
#X connect 26 0 24 0;
#X connect 27 0 28 0;
#X connect 28 0 29 0;
#X connect 29 0 30 0;
#X connect 30 0 14 0;
